<svg width="64" height="120" viewBox="0 0 64 120" fill="none" xmlns="http://www.w3.org/2000/svg">
<g clip-path="url(#clip0_1_141)">
<path d="M8.95312 119.141C8.95312 119.005 9.01042 118.901 9.125 118.828C9.23958 118.745 9.35938 118.672 9.48438 118.609C9.61979 118.547 9.74479 118.484 9.85938 118.422C9.97396 118.349 10.0312 118.255 10.0312 118.141C10.0312 117.964 9.96875 117.76 9.84375 117.531C9.72917 117.302 9.60938 117.115 9.48438 116.969C9.45312 116.938 9.38542 116.859 9.28125 116.734C9.17708 116.599 9.0625 116.458 8.9375 116.312C8.82292 116.167 8.71354 116.026 8.60938 115.891C8.50521 115.755 8.4375 115.672 8.40625 115.641C8.19792 115.391 7.98438 115.177 7.76562 115C7.54688 114.823 7.31771 114.604 7.07812 114.344C7.06771 114.344 7.03646 114.344 6.98438 114.344C6.94271 114.333 6.91146 114.328 6.89062 114.328C6.75521 114.328 6.64062 114.365 6.54688 114.438C6.45312 114.51 6.375 114.604 6.3125 114.719C6.25 114.833 6.20312 114.958 6.17188 115.094C6.14062 115.219 6.11979 115.333 6.10938 115.438C6.09896 115.5 6.08333 115.604 6.0625 115.75C6.05208 115.896 6.03646 116.057 6.01562 116.234C5.99479 116.401 5.96875 116.562 5.9375 116.719C5.91667 116.875 5.90104 116.984 5.89062 117.047V117.25V117.406C5.89062 117.417 5.90625 117.448 5.9375 117.5C5.97917 117.542 6.02083 117.599 6.0625 117.672C6.11458 117.734 6.16667 117.802 6.21875 117.875C6.28125 117.948 6.32812 118.005 6.35938 118.047C6.43229 118.151 6.52604 118.24 6.64062 118.312C6.76562 118.375 6.88542 118.448 7 118.531C7.125 118.604 7.22917 118.693 7.3125 118.797C7.39583 118.901 7.4375 119.031 7.4375 119.188C7.4375 119.323 7.39062 119.438 7.29688 119.531C7.21354 119.615 7.10938 119.682 6.98438 119.734C6.85938 119.776 6.72917 119.807 6.59375 119.828C6.45833 119.849 6.34375 119.859 6.25 119.859H5.4375H3.40625C3.375 119.859 3.30208 119.865 3.1875 119.875C3.07292 119.885 2.94792 119.901 2.8125 119.922C2.67708 119.932 2.55208 119.948 2.4375 119.969C2.32292 119.979 2.25 119.99 2.21875 120H1.96875C1.82292 120 1.66667 119.943 1.5 119.828C1.33333 119.714 1.25 119.573 1.25 119.406V119.328C1.25 119.297 1.26562 119.255 1.29688 119.203C1.32812 119.141 1.35938 119.073 1.39062 119C1.43229 118.927 1.46875 118.865 1.5 118.812C1.53125 118.75 1.55208 118.703 1.5625 118.672C1.60417 118.589 1.66667 118.536 1.75 118.516C1.83333 118.495 1.92188 118.484 2.01562 118.484C2.10938 118.474 2.20312 118.464 2.29688 118.453C2.39062 118.443 2.47917 118.406 2.5625 118.344C2.73958 118.198 2.86979 118.031 2.95312 117.844C3.03646 117.646 3.15104 117.453 3.29688 117.266C3.29688 117.13 3.30208 116.922 3.3125 116.641C3.33333 116.349 3.34896 116.021 3.35938 115.656C3.38021 115.292 3.39583 114.911 3.40625 114.516C3.42708 114.109 3.44271 113.724 3.45312 113.359C3.47396 112.995 3.48958 112.672 3.5 112.391C3.51042 112.099 3.51562 111.885 3.51562 111.75C3.51562 111.74 3.51562 111.682 3.51562 111.578C3.52604 111.474 3.53125 111.359 3.53125 111.234C3.53125 111.099 3.53125 110.964 3.53125 110.828C3.54167 110.693 3.54688 110.589 3.54688 110.516C3.54688 110.464 3.54167 110.38 3.53125 110.266C3.53125 110.141 3.53125 110.01 3.53125 109.875C3.53125 109.74 3.52604 109.615 3.51562 109.5C3.51562 109.385 3.51562 109.307 3.51562 109.266C3.47396 109.099 3.43229 108.927 3.39062 108.75C3.34896 108.562 3.28125 108.401 3.1875 108.266C3.07292 108.109 2.94792 108.005 2.8125 107.953C2.67708 107.901 2.53646 107.854 2.39062 107.812C2.24479 107.771 2.09896 107.714 1.95312 107.641C1.81771 107.557 1.6875 107.406 1.5625 107.188C1.47917 107.021 1.4375 106.859 1.4375 106.703C1.4375 106.526 1.48438 106.422 1.57812 106.391C1.68229 106.349 1.80729 106.328 1.95312 106.328C2.27604 106.328 2.59896 106.344 2.92188 106.375C3.24479 106.406 3.5625 106.438 3.875 106.469C4.19792 106.5 4.51562 106.531 4.82812 106.562C5.15104 106.583 5.47917 106.583 5.8125 106.562C5.875 106.583 5.96875 106.63 6.09375 106.703C6.21875 106.776 6.33854 106.865 6.45312 106.969C6.56771 107.062 6.66667 107.161 6.75 107.266C6.84375 107.37 6.89062 107.458 6.89062 107.531C6.89062 107.615 6.84896 107.693 6.76562 107.766C6.69271 107.828 6.60417 107.896 6.5 107.969C6.39583 108.042 6.29167 108.12 6.1875 108.203C6.09375 108.286 6.03125 108.38 6 108.484V109.734V110.969C6.01042 111.083 6.02083 111.203 6.03125 111.328C6.04167 111.453 6.06771 111.568 6.10938 111.672C6.15104 111.766 6.20312 111.844 6.26562 111.906C6.33854 111.969 6.4375 112 6.5625 112C6.59375 112 6.63021 111.995 6.67188 111.984C6.72396 111.974 6.76042 111.969 6.78125 111.969C6.79167 111.958 6.82812 111.927 6.89062 111.875C6.96354 111.823 7.03646 111.766 7.10938 111.703C7.18229 111.641 7.25 111.583 7.3125 111.531C7.375 111.479 7.41667 111.448 7.4375 111.438C7.47917 111.385 7.55729 111.318 7.67188 111.234C7.78646 111.151 7.84896 111.099 7.85938 111.078C7.88021 111.078 7.93229 111.068 8.01562 111.047C8.10938 111.026 8.15625 111 8.15625 110.969C8.3125 110.865 8.46354 110.734 8.60938 110.578C8.75521 110.422 8.88542 110.255 9 110.078C9.125 109.901 9.22917 109.714 9.3125 109.516C9.39583 109.318 9.45312 109.12 9.48438 108.922C9.45312 108.891 9.41667 108.828 9.375 108.734C9.33333 108.641 9.28646 108.542 9.23438 108.438C9.19271 108.333 9.15104 108.234 9.10938 108.141C9.07812 108.047 9.0625 107.979 9.0625 107.938C9.05208 107.885 9.04167 107.839 9.03125 107.797C9.01042 107.693 9 107.615 9 107.562C9 107.51 9.01042 107.432 9.03125 107.328C9.04167 107.286 9.05208 107.24 9.0625 107.188C9.07292 107.167 9.11458 107.115 9.1875 107.031C9.26042 106.938 9.32292 106.88 9.375 106.859C9.40625 106.849 9.46354 106.833 9.54688 106.812C9.63021 106.792 9.72396 106.771 9.82812 106.75C9.93229 106.719 10.0312 106.693 10.125 106.672C10.2292 106.651 10.3073 106.641 10.3594 106.641H10.6719H11.5469C11.5677 106.641 11.6042 106.635 11.6562 106.625C11.7083 106.615 11.7604 106.609 11.8125 106.609C11.875 106.599 11.9323 106.589 11.9844 106.578C12.0365 106.568 12.0677 106.562 12.0781 106.562C12.1302 106.552 12.2188 106.542 12.3438 106.531C12.4688 106.51 12.599 106.495 12.7344 106.484C12.8698 106.474 12.9948 106.464 13.1094 106.453C13.2344 106.443 13.3229 106.438 13.375 106.438H13.8438C14.0312 106.438 14.224 106.453 14.4219 106.484C14.6198 106.516 14.776 106.604 14.8906 106.75C14.9219 106.792 14.9688 106.87 15.0312 106.984C15.1042 107.099 15.1406 107.167 15.1406 107.188C15.1406 107.229 15.1042 107.307 15.0312 107.422C14.9688 107.526 14.9219 107.599 14.8906 107.641C14.8594 107.661 14.7969 107.703 14.7031 107.766C14.6198 107.828 14.526 107.896 14.4219 107.969C14.3177 108.042 14.2188 108.109 14.125 108.172C14.0312 108.224 13.9635 108.255 13.9219 108.266C13.901 108.286 13.8646 108.302 13.8125 108.312C13.7604 108.323 13.7031 108.333 13.6406 108.344C13.5885 108.354 13.5312 108.365 13.4688 108.375C13.4167 108.375 13.3854 108.375 13.375 108.375C13.1146 108.448 12.8438 108.552 12.5625 108.688C12.2917 108.812 12.0677 108.969 11.8906 109.156C11.849 109.177 11.7812 109.245 11.6875 109.359C11.6042 109.474 11.5573 109.542 11.5469 109.562C11.4323 109.698 11.3021 109.807 11.1562 109.891C11.0104 109.964 10.8594 110.036 10.7031 110.109C10.5469 110.182 10.3958 110.26 10.25 110.344C10.1146 110.427 10.0052 110.536 9.92188 110.672C9.90104 110.693 9.86979 110.745 9.82812 110.828C9.78646 110.911 9.73958 111.005 9.6875 111.109C9.64583 111.203 9.60417 111.292 9.5625 111.375C9.52083 111.458 9.49479 111.505 9.48438 111.516C9.46354 111.536 9.42188 111.599 9.35938 111.703C9.29688 111.797 9.26042 111.849 9.25 111.859V112.156C9.25 112.427 9.29688 112.672 9.39062 112.891C9.48438 113.099 9.60417 113.297 9.75 113.484C9.89583 113.661 10.0573 113.839 10.2344 114.016C10.4115 114.182 10.5885 114.365 10.7656 114.562C10.7865 114.583 10.8229 114.641 10.875 114.734C10.9375 114.818 10.9792 114.87 11 114.891C11.0625 114.974 11.1458 115.083 11.25 115.219C11.3542 115.344 11.4583 115.469 11.5625 115.594C11.6667 115.719 11.7552 115.828 11.8281 115.922C11.9115 116.016 11.9583 116.068 11.9688 116.078C12.1979 116.318 12.4479 116.536 12.7188 116.734C12.9896 116.922 13.2604 117.115 13.5312 117.312C13.8021 117.5 14.0677 117.698 14.3281 117.906C14.5885 118.104 14.8229 118.333 15.0312 118.594C15.0833 118.646 15.1146 118.703 15.125 118.766C15.1354 118.818 15.1406 118.88 15.1406 118.953V119.141V119.297C15.1406 119.37 15.1354 119.438 15.125 119.5C15.1146 119.552 15.0833 119.609 15.0312 119.672C15 119.693 14.9583 119.729 14.9062 119.781C14.8542 119.833 14.7969 119.891 14.7344 119.953C14.6823 120.005 14.6302 120.057 14.5781 120.109C14.526 120.161 14.4948 120.198 14.4844 120.219H14.3281C13.9635 120.219 13.599 120.182 13.2344 120.109C12.8698 120.036 12.5208 120 12.1875 120H11.7812H10.6719C10.5677 119.99 10.4167 119.969 10.2188 119.938C10.0312 119.906 9.84375 119.854 9.65625 119.781C9.46875 119.708 9.30208 119.62 9.15625 119.516C9.02083 119.411 8.95312 119.286 8.95312 119.141ZM21.625 112.922V112.938C21.6354 112.969 21.6562 113.016 21.6875 113.078C21.7292 113.141 21.7656 113.208 21.7969 113.281C21.8281 113.354 21.8594 113.422 21.8906 113.484C21.9219 113.547 21.9427 113.594 21.9531 113.625H22.3281H22.7188C22.7812 113.615 22.8958 113.594 23.0625 113.562C23.2292 113.531 23.4062 113.5 23.5938 113.469C23.7812 113.427 23.9583 113.391 24.125 113.359C24.2917 113.318 24.4062 113.286 24.4688 113.266C24.6042 113.161 24.7292 113.031 24.8438 112.875C24.9688 112.708 25.0729 112.531 25.1562 112.344C25.2396 112.156 25.3073 111.964 25.3594 111.766C25.4115 111.568 25.4375 111.385 25.4375 111.219C25.4375 111.198 25.4375 111.177 25.4375 111.156C25.4375 111.125 25.4323 111.109 25.4219 111.109C25.4219 111.089 25.401 111.016 25.3594 110.891C25.3281 110.766 25.3125 110.693 25.3125 110.672C25.3125 110.641 25.3073 110.578 25.2969 110.484C25.2969 110.391 25.2917 110.292 25.2812 110.188C25.2708 110.083 25.2552 109.984 25.2344 109.891C25.224 109.797 25.2135 109.734 25.2031 109.703C25.2031 109.682 25.1927 109.646 25.1719 109.594C25.151 109.542 25.1354 109.505 25.125 109.484C25.0729 109.432 24.9896 109.354 24.875 109.25C24.7708 109.135 24.6615 109.021 24.5469 108.906C24.4323 108.792 24.3229 108.688 24.2188 108.594C24.125 108.5 24.0625 108.438 24.0312 108.406C24.0104 108.385 23.9427 108.349 23.8281 108.297C23.7135 108.245 23.6302 108.208 23.5781 108.188C23.5573 108.177 23.5208 108.161 23.4688 108.141C23.4167 108.109 23.3594 108.083 23.2969 108.062C23.2344 108.042 23.1771 108.021 23.125 108C23.0729 107.979 23.0417 107.969 23.0312 107.969H22.9531H22.8438C22.8125 107.979 22.7604 108.005 22.6875 108.047C22.625 108.078 22.5521 108.12 22.4688 108.172C22.3854 108.214 22.3021 108.26 22.2188 108.312C22.1458 108.354 22.0938 108.385 22.0625 108.406C21.9167 108.521 21.8229 108.656 21.7812 108.812C21.7396 108.958 21.7188 109.12 21.7188 109.297C21.7188 109.391 21.7188 109.49 21.7188 109.594C21.7292 109.688 21.7344 109.776 21.7344 109.859V110.031C21.7344 110.052 21.7135 110.104 21.6719 110.188C21.6406 110.271 21.625 110.323 21.625 110.344V110.438C21.625 110.646 21.6458 110.849 21.6875 111.047C21.7396 111.234 21.7656 111.432 21.7656 111.641C21.7656 111.849 21.7396 112.057 21.6875 112.266C21.6458 112.464 21.625 112.682 21.625 112.922ZM18.2812 120.547C18.1875 120.516 18.0729 120.448 17.9375 120.344C17.8021 120.25 17.7344 120.161 17.7344 120.078C17.7344 119.859 17.776 119.703 17.8594 119.609C17.9531 119.505 18.0625 119.422 18.1875 119.359C18.3125 119.286 18.4427 119.214 18.5781 119.141C18.7135 119.068 18.8281 118.948 18.9219 118.781C18.9323 118.771 18.9531 118.734 18.9844 118.672C19.0156 118.599 19.0469 118.521 19.0781 118.438C19.1198 118.344 19.1562 118.255 19.1875 118.172C19.2188 118.078 19.2396 118.005 19.25 117.953C19.2604 117.922 19.276 117.87 19.2969 117.797C19.3281 117.724 19.3542 117.646 19.375 117.562C19.3958 117.479 19.4115 117.401 19.4219 117.328C19.4427 117.245 19.4583 117.188 19.4688 117.156C19.4792 117.156 19.4896 117.13 19.5 117.078C19.5104 117.026 19.5208 116.974 19.5312 116.922C19.5417 116.859 19.5521 116.802 19.5625 116.75C19.5729 116.688 19.5781 116.646 19.5781 116.625C19.599 116.604 19.625 116.536 19.6562 116.422C19.6979 116.307 19.7188 116.24 19.7188 116.219C19.6875 116.188 19.6406 116.115 19.5781 116C19.5156 115.875 19.4792 115.802 19.4688 115.781V115.625C19.4688 115.5 19.4844 115.38 19.5156 115.266C19.5573 115.141 19.5781 115.016 19.5781 114.891C19.5781 114.453 19.5417 114.031 19.4688 113.625C19.3958 113.208 19.3594 112.766 19.3594 112.297C19.3594 112.286 19.3646 112.25 19.375 112.188C19.3854 112.125 19.3958 112.057 19.4062 111.984C19.4271 111.911 19.4427 111.844 19.4531 111.781C19.4635 111.708 19.4688 111.661 19.4688 111.641V110.516V109.406C19.4479 109.219 19.3698 109.057 19.2344 108.922C19.1094 108.786 18.974 108.688 18.8281 108.625C18.776 108.594 18.6875 108.552 18.5625 108.5C18.4375 108.448 18.3021 108.396 18.1562 108.344C18.0208 108.281 17.8906 108.229 17.7656 108.188C17.6406 108.135 17.5521 108.099 17.5 108.078C17.4688 108.005 17.4219 107.896 17.3594 107.75C17.3073 107.594 17.2917 107.49 17.3125 107.438C17.3125 107.417 17.3385 107.38 17.3906 107.328C17.4427 107.276 17.4792 107.229 17.5 107.188C17.5417 107.167 17.6146 107.135 17.7188 107.094C17.8333 107.052 17.9115 107.021 17.9531 107H18.7188H19.4688C19.5 107 19.5677 107.005 19.6719 107.016C19.776 107.026 19.8854 107.042 20 107.062C20.125 107.073 20.2396 107.083 20.3438 107.094C20.4479 107.104 20.5156 107.109 20.5469 107.109H21.5312C21.5521 107.109 21.5938 107.12 21.6562 107.141C21.7188 107.161 21.7812 107.188 21.8438 107.219C21.9167 107.24 21.9844 107.26 22.0469 107.281C22.1094 107.302 22.151 107.318 22.1719 107.328H22.3594C22.7656 107.328 23.1615 107.292 23.5469 107.219C23.9323 107.146 24.3229 107.109 24.7188 107.109H25.4219C25.651 107.13 25.849 107.214 26.0156 107.359C26.1927 107.495 26.3646 107.62 26.5312 107.734C27.0104 108.161 27.3802 108.609 27.6406 109.078C27.901 109.547 28.0312 110.125 28.0312 110.812C28.0312 111.146 28.0156 111.448 27.9844 111.719C27.9635 111.979 27.875 112.255 27.7188 112.547C27.6875 112.599 27.6354 112.672 27.5625 112.766C27.4896 112.859 27.4167 112.958 27.3438 113.062C27.2812 113.156 27.2188 113.245 27.1562 113.328C27.1042 113.411 27.0729 113.464 27.0625 113.484C26.9896 113.578 26.901 113.667 26.7969 113.75C26.7031 113.833 26.6094 113.922 26.5156 114.016C26.4323 114.099 26.3594 114.193 26.2969 114.297C26.2344 114.391 26.2031 114.5 26.2031 114.625C26.2031 114.781 26.2292 114.948 26.2812 115.125C26.3438 115.302 26.4271 115.443 26.5312 115.547C26.7292 115.786 26.9635 116 27.2344 116.188C27.5052 116.375 27.7292 116.599 27.9062 116.859C27.9375 116.859 27.9635 116.891 27.9844 116.953L28.0156 117.047C28.1927 117.318 28.3542 117.557 28.5 117.766C28.6458 117.964 28.8542 118.167 29.125 118.375C29.2188 118.448 29.3333 118.521 29.4688 118.594C29.6042 118.667 29.7344 118.745 29.8594 118.828C29.9844 118.911 30.0885 119.016 30.1719 119.141C30.2656 119.255 30.3125 119.396 30.3125 119.562C30.3125 119.708 30.2448 119.849 30.1094 119.984C29.974 120.12 29.8125 120.234 29.625 120.328C29.4479 120.432 29.2656 120.51 29.0781 120.562C28.8906 120.625 28.7448 120.656 28.6406 120.656H28.1406C28.1302 120.656 28.0781 120.635 27.9844 120.594C27.8906 120.562 27.8385 120.547 27.8281 120.547H27.1719C27.0156 120.536 26.8698 120.432 26.7344 120.234C26.599 120.036 26.474 119.812 26.3594 119.562C26.2448 119.302 26.1406 119.052 26.0469 118.812C25.9635 118.562 25.8958 118.375 25.8438 118.25C25.8438 118.219 25.8229 118.167 25.7812 118.094C25.75 118.01 25.7083 117.927 25.6562 117.844C25.6146 117.75 25.5729 117.661 25.5312 117.578C25.4896 117.495 25.4531 117.438 25.4219 117.406C25.349 117.26 25.224 117.156 25.0469 117.094C24.8698 117.021 24.7135 116.943 24.5781 116.859C24.5469 116.859 24.5208 116.839 24.5 116.797C24.4896 116.776 24.4792 116.76 24.4688 116.75C24.4583 116.74 24.4375 116.714 24.4062 116.672C24.375 116.62 24.3385 116.573 24.2969 116.531C24.2656 116.479 24.2292 116.432 24.1875 116.391C24.1562 116.349 24.1354 116.328 24.125 116.328C24.1146 116.318 24.1042 116.312 24.0938 116.312C24.0833 116.302 24.0729 116.286 24.0625 116.266C24.0521 116.255 24.0417 116.24 24.0312 116.219C24.0104 116.208 23.9635 116.188 23.8906 116.156C23.8281 116.115 23.7604 116.078 23.6875 116.047C23.6146 116.005 23.5469 115.974 23.4844 115.953C23.4323 115.922 23.401 115.901 23.3906 115.891C23.3698 115.87 23.3281 115.828 23.2656 115.766C23.2031 115.703 23.1615 115.661 23.1406 115.641C22.9948 115.557 22.8333 115.49 22.6562 115.438C22.4792 115.375 22.3073 115.344 22.1406 115.344H22.0625L22 115.375C21.9688 115.396 21.9531 115.417 21.9531 115.438C21.9427 115.469 21.9219 115.516 21.8906 115.578C21.8594 115.63 21.8281 115.693 21.7969 115.766C21.7656 115.828 21.7292 115.891 21.6875 115.953C21.6562 116.005 21.6354 116.047 21.625 116.078V116.781V117.344C21.625 117.552 21.6354 117.76 21.6562 117.969C21.6875 118.167 21.7604 118.339 21.875 118.484C21.875 118.505 21.9271 118.583 22.0312 118.719C22.1458 118.854 22.2396 118.958 22.3125 119.031C22.4167 119.146 22.5365 119.229 22.6719 119.281C22.8073 119.333 22.9375 119.391 23.0625 119.453C23.1875 119.516 23.2917 119.599 23.375 119.703C23.4583 119.797 23.5 119.948 23.5 120.156C23.5 120.281 23.4479 120.359 23.3438 120.391C23.2396 120.422 23.1302 120.438 23.0156 120.438H22.7969H22.7188C22.6771 120.438 22.599 120.443 22.4844 120.453C22.3698 120.464 22.2448 120.474 22.1094 120.484C21.9844 120.495 21.8646 120.505 21.75 120.516C21.6458 120.526 21.5729 120.536 21.5312 120.547C21.5104 120.547 21.474 120.552 21.4219 120.562C21.3802 120.573 21.3281 120.583 21.2656 120.594C21.2031 120.615 21.1458 120.63 21.0938 120.641C21.0417 120.651 21.0052 120.656 20.9844 120.656H20.9219H20.875C20.8646 120.656 20.8281 120.651 20.7656 120.641C20.7031 120.63 20.6354 120.615 20.5625 120.594C20.5 120.583 20.4323 120.573 20.3594 120.562C20.2969 120.552 20.2604 120.547 20.25 120.547C20.1667 120.547 20.0312 120.542 19.8438 120.531C19.6562 120.521 19.4583 120.516 19.25 120.516C19.0417 120.516 18.8438 120.521 18.6562 120.531C18.4792 120.542 18.3542 120.547 18.2812 120.547ZM36.7031 120.375C36.6615 120.354 36.5729 120.318 36.4375 120.266C36.3021 120.214 36.2083 120.177 36.1562 120.156H36H35.75C35.6771 120.167 35.5677 120.177 35.4219 120.188C35.2865 120.198 35.1458 120.208 35 120.219C34.8646 120.229 34.7396 120.24 34.625 120.25C34.5208 120.271 34.4531 120.286 34.4219 120.297C34.4115 120.297 34.3594 120.307 34.2656 120.328C34.1719 120.359 34.1198 120.375 34.1094 120.375H34.0469H34C33.9792 120.375 33.9271 120.359 33.8438 120.328C33.7708 120.307 33.724 120.297 33.7031 120.297C33.4844 120.266 33.2604 120.245 33.0312 120.234C32.8125 120.234 32.6146 120.214 32.4375 120.172C32.2604 120.13 32.1146 120.047 32 119.922C31.8854 119.786 31.8281 119.578 31.8281 119.297C31.8281 118.995 31.9219 118.792 32.1094 118.688C32.3073 118.573 32.5365 118.49 32.7969 118.438C33.0677 118.375 33.3385 118.307 33.6094 118.234C33.8802 118.161 34.0885 118.01 34.2344 117.781V117.672C34.2344 117.495 34.2135 117.318 34.1719 117.141C34.1302 116.964 34.1094 116.771 34.1094 116.562C34.1094 115.885 34.1354 115.219 34.1875 114.562C34.25 113.906 34.2969 113.25 34.3281 112.594V111.266C34.349 110.995 34.3854 110.724 34.4375 110.453C34.5 110.172 34.5312 109.875 34.5312 109.562C34.5312 109.229 34.4948 108.922 34.4219 108.641C34.349 108.349 34.2083 108.062 34 107.781C33.9792 107.771 33.9531 107.75 33.9219 107.719C33.901 107.688 33.8802 107.656 33.8594 107.625C33.8281 107.583 33.8021 107.547 33.7812 107.516H32.5625C32.5417 107.516 32.4792 107.458 32.375 107.344C32.2708 107.219 32.1979 107.12 32.1562 107.047C32.1458 107.026 32.1406 107 32.1406 106.969C32.1302 106.938 32.125 106.891 32.125 106.828C32.125 106.714 32.1562 106.62 32.2188 106.547C32.2812 106.464 32.3646 106.396 32.4688 106.344C32.5729 106.281 32.6823 106.24 32.7969 106.219C32.9219 106.188 33.0417 106.167 33.1562 106.156H34.4219C34.526 106.062 34.6302 106.005 34.7344 105.984C34.8385 105.953 34.9531 105.938 35.0781 105.938C35.1719 105.938 35.2708 105.943 35.375 105.953C35.4792 105.964 35.5885 105.969 35.7031 105.969H35.8594C35.8802 105.969 35.9479 105.953 36.0625 105.922C36.1771 105.88 36.2552 105.859 36.2969 105.859C36.3177 105.859 36.3646 105.875 36.4375 105.906C36.5208 105.927 36.5729 105.948 36.5938 105.969H38.5625C38.5833 105.948 38.6354 105.927 38.7188 105.906C38.8021 105.875 38.8594 105.859 38.8906 105.859C38.9115 105.87 38.9375 105.88 38.9688 105.891C38.9896 105.901 39.0104 105.917 39.0312 105.938C39.0625 105.948 39.0885 105.958 39.1094 105.969C39.151 105.99 39.2083 106.026 39.2812 106.078C39.3646 106.13 39.4167 106.156 39.4375 106.156C39.4792 106.208 39.526 106.276 39.5781 106.359C39.6406 106.443 39.6979 106.526 39.75 106.609C39.8125 106.682 39.8646 106.75 39.9062 106.812C39.9479 106.875 39.9688 106.917 39.9688 106.938V107.234C39.9375 107.245 39.8906 107.26 39.8281 107.281C39.7656 107.302 39.6979 107.328 39.625 107.359C39.5625 107.391 39.5 107.417 39.4375 107.438C39.375 107.458 39.3281 107.474 39.2969 107.484C39.276 107.484 39.224 107.516 39.1406 107.578C39.0677 107.641 39.0208 107.672 39 107.672C38.8542 107.766 38.7083 107.854 38.5625 107.938C38.4271 108.021 38.2969 108.115 38.1719 108.219C38.0573 108.312 37.9635 108.427 37.8906 108.562C37.8177 108.688 37.7812 108.844 37.7812 109.031C37.7812 109.188 37.8021 109.339 37.8438 109.484C37.8958 109.63 37.9219 109.776 37.9219 109.922V110.078C37.9219 110.099 37.9167 110.141 37.9062 110.203C37.8958 110.266 37.8802 110.333 37.8594 110.406C37.849 110.469 37.8385 110.536 37.8281 110.609C37.8177 110.672 37.8125 110.714 37.8125 110.734V111.156V112.234C37.7917 112.443 37.7292 112.646 37.625 112.844C37.5312 113.031 37.4844 113.229 37.4844 113.438C37.4844 113.531 37.4948 113.63 37.5156 113.734C37.5469 113.839 37.5625 113.938 37.5625 114.031V114.219C37.5208 114.583 37.4792 114.958 37.4375 115.344C37.3958 115.729 37.375 116.12 37.375 116.516V116.703C37.4062 116.901 37.4323 117.104 37.4531 117.312C37.474 117.51 37.5156 117.693 37.5781 117.859C37.6406 118.026 37.7396 118.167 37.875 118.281C38.0104 118.385 38.2031 118.438 38.4531 118.438C38.599 118.438 38.7188 118.396 38.8125 118.312C38.9062 118.229 39.0208 118.188 39.1562 118.188H39.2188C39.2708 118.188 39.2969 118.198 39.2969 118.219C39.3281 118.24 39.3802 118.281 39.4531 118.344C39.5365 118.396 39.6198 118.458 39.7031 118.531C39.7865 118.594 39.8594 118.656 39.9219 118.719C39.9948 118.781 40.0469 118.828 40.0781 118.859C40.151 118.911 40.2396 118.995 40.3438 119.109C40.4583 119.224 40.5156 119.349 40.5156 119.484V119.516C40.4635 119.651 40.375 119.792 40.25 119.938C40.1354 120.083 40.0417 120.203 39.9688 120.297C39.9583 120.297 39.9375 120.312 39.9062 120.344C39.8854 120.354 39.8698 120.365 39.8594 120.375C39.849 120.375 39.8073 120.38 39.7344 120.391C39.6719 120.401 39.599 120.411 39.5156 120.422C39.4427 120.443 39.3646 120.458 39.2812 120.469C39.2083 120.479 39.151 120.484 39.1094 120.484H38.9688H38.75C38.6771 120.484 38.5417 120.479 38.3438 120.469C38.1562 120.458 37.9531 120.443 37.7344 120.422C37.5156 120.411 37.3073 120.401 37.1094 120.391C36.9219 120.38 36.7865 120.375 36.7031 120.375ZM42.4844 117.781V117.406C42.4844 117.385 42.5156 117.318 42.5781 117.203C42.6406 117.089 42.6719 117.021 42.6719 117C42.724 116.875 42.7708 116.74 42.8125 116.594C42.8542 116.438 42.901 116.292 42.9531 116.156C43.0156 116.021 43.0938 115.906 43.1875 115.812C43.2917 115.719 43.4271 115.672 43.5938 115.672H43.75C43.7812 115.672 43.8229 115.719 43.875 115.812C43.9271 115.906 43.9688 115.979 44 116.031C44.1354 116.281 44.2812 116.568 44.4375 116.891C44.6042 117.203 44.7917 117.495 45 117.766C45.2188 118.036 45.4635 118.266 45.7344 118.453C46.0156 118.641 46.3385 118.734 46.7031 118.734C46.8385 118.734 47.0104 118.688 47.2188 118.594C47.4375 118.49 47.6458 118.37 47.8438 118.234C48.0521 118.099 48.2344 117.958 48.3906 117.812C48.5469 117.656 48.6406 117.521 48.6719 117.406C48.7135 117.281 48.7448 117.167 48.7656 117.062C48.7969 116.958 48.8125 116.849 48.8125 116.734C48.8125 116.641 48.8021 116.536 48.7812 116.422C48.7604 116.307 48.724 116.177 48.6719 116.031C48.6719 115.906 48.5625 115.734 48.3438 115.516C48.1354 115.297 47.8906 115.083 47.6094 114.875C47.3281 114.656 47.0573 114.458 46.7969 114.281C46.5365 114.104 46.3594 113.99 46.2656 113.938C46.151 113.896 46.0365 113.875 45.9219 113.875C45.8073 113.865 45.7083 113.823 45.625 113.75C45.6146 113.729 45.5885 113.698 45.5469 113.656C45.5052 113.615 45.4583 113.573 45.4062 113.531C45.3542 113.479 45.3073 113.432 45.2656 113.391C45.224 113.349 45.1979 113.328 45.1875 113.328C45.1667 113.286 45.099 113.229 44.9844 113.156C44.8802 113.073 44.8021 113.01 44.75 112.969L44.5469 112.859C44.5156 112.828 44.4583 112.776 44.375 112.703C44.2917 112.62 44.2031 112.531 44.1094 112.438C44.0156 112.344 43.9271 112.255 43.8438 112.172C43.7604 112.089 43.7031 112.031 43.6719 112C43.6094 111.823 43.5521 111.646 43.5 111.469C43.4479 111.292 43.3958 111.109 43.3438 110.922C43.3333 110.87 43.3177 110.797 43.2969 110.703C43.276 110.609 43.25 110.521 43.2188 110.438C43.1979 110.344 43.1771 110.266 43.1562 110.203C43.1458 110.13 43.1406 110.089 43.1406 110.078C43.1198 109.797 43.1406 109.505 43.2031 109.203C43.2656 108.891 43.3594 108.594 43.4844 108.312C43.6094 108.031 43.7604 107.771 43.9375 107.531C44.125 107.281 44.3281 107.078 44.5469 106.922C44.5573 106.901 44.6094 106.88 44.7031 106.859C44.8073 106.828 44.8698 106.802 44.8906 106.781C45.0469 106.719 45.2188 106.625 45.4062 106.5C45.5938 106.365 45.7865 106.234 45.9844 106.109C46.1823 105.974 46.3802 105.859 46.5781 105.766C46.776 105.672 46.9635 105.625 47.1406 105.625C47.3177 105.625 47.5156 105.667 47.7344 105.75C47.9635 105.823 48.1615 105.885 48.3281 105.938C48.6094 106.031 48.875 106.12 49.125 106.203C49.3854 106.286 49.6146 106.396 49.8125 106.531C50.0208 106.667 50.1823 106.839 50.2969 107.047C50.4219 107.255 50.4844 107.526 50.4844 107.859C50.4844 107.974 50.4688 108.141 50.4375 108.359C50.4167 108.568 50.375 108.776 50.3125 108.984C50.25 109.182 50.1615 109.359 50.0469 109.516C49.9427 109.661 49.8021 109.734 49.625 109.734H49.5156C49.4948 109.714 49.4583 109.641 49.4062 109.516C49.3542 109.391 49.3177 109.318 49.2969 109.297C49.151 109.036 48.9896 108.786 48.8125 108.547C48.6458 108.307 48.4531 108.099 48.2344 107.922C48.026 107.734 47.7969 107.589 47.5469 107.484C47.2969 107.38 47.0156 107.328 46.7031 107.328C46.6094 107.328 46.5 107.333 46.375 107.344C46.2604 107.354 46.151 107.391 46.0469 107.453C45.6927 107.724 45.4219 108.01 45.2344 108.312C45.0573 108.615 44.9688 108.995 44.9688 109.453C44.9688 109.703 45.026 109.932 45.1406 110.141C45.2552 110.339 45.401 110.516 45.5781 110.672C45.7552 110.828 45.9531 110.964 46.1719 111.078C46.3906 111.193 46.6042 111.281 46.8125 111.344C46.8229 111.354 46.8594 111.365 46.9219 111.375C46.9844 111.385 47.0521 111.396 47.125 111.406C47.2083 111.417 47.2812 111.427 47.3438 111.438C47.4062 111.448 47.4427 111.453 47.4531 111.453C47.474 111.453 47.5104 111.474 47.5625 111.516C47.6146 111.547 47.651 111.562 47.6719 111.562C47.901 111.729 48.1354 111.896 48.375 112.062C48.625 112.219 48.8646 112.385 49.0938 112.562C49.3333 112.729 49.5625 112.911 49.7812 113.109C50 113.307 50.1979 113.521 50.375 113.75C50.3854 113.76 50.4062 113.797 50.4375 113.859C50.4688 113.922 50.5 113.995 50.5312 114.078C50.5729 114.151 50.6094 114.229 50.6406 114.312C50.6823 114.385 50.7135 114.443 50.7344 114.484C50.7344 114.505 50.7344 114.547 50.7344 114.609C50.7448 114.672 50.7552 114.74 50.7656 114.812C50.776 114.885 50.7865 114.958 50.7969 115.031C50.8073 115.094 50.8229 115.13 50.8438 115.141C50.8854 115.266 50.9323 115.38 50.9844 115.484C51.0469 115.578 51.1042 115.672 51.1562 115.766C51.2188 115.859 51.2708 115.953 51.3125 116.047C51.3542 116.141 51.375 116.25 51.375 116.375C51.375 116.708 51.3021 117.016 51.1562 117.297C51.0208 117.578 50.8802 117.875 50.7344 118.188C50.5885 118.406 50.4062 118.62 50.1875 118.828C49.9792 119.036 49.7969 119.208 49.6406 119.344C49.224 119.708 48.7448 119.964 48.2031 120.109C47.6615 120.266 47.1406 120.344 46.6406 120.344C46.2656 120.344 45.8854 120.323 45.5 120.281C45.1146 120.24 44.7604 120.146 44.4375 120C44.4167 119.99 44.375 119.969 44.3125 119.938C44.25 119.896 44.1771 119.854 44.0938 119.812C44.0208 119.76 43.9479 119.714 43.875 119.672C43.8125 119.63 43.7708 119.604 43.75 119.594C43.5417 119.469 43.3594 119.359 43.2031 119.266C43.0469 119.161 42.9115 119.047 42.7969 118.922C42.6927 118.797 42.6146 118.646 42.5625 118.469C42.5104 118.292 42.4844 118.062 42.4844 117.781ZM58.3281 120.375C58.2865 120.354 58.1979 120.318 58.0625 120.266C57.9271 120.214 57.8333 120.177 57.7812 120.156H57.625H57.375C57.3021 120.167 57.1927 120.177 57.0469 120.188C56.9115 120.198 56.7708 120.208 56.625 120.219C56.4896 120.229 56.3646 120.24 56.25 120.25C56.1458 120.271 56.0781 120.286 56.0469 120.297C56.0365 120.297 55.9844 120.307 55.8906 120.328C55.7969 120.359 55.7448 120.375 55.7344 120.375H55.6719H55.625C55.6042 120.375 55.5521 120.359 55.4688 120.328C55.3958 120.307 55.349 120.297 55.3281 120.297C55.1094 120.266 54.8854 120.245 54.6562 120.234C54.4375 120.234 54.2396 120.214 54.0625 120.172C53.8854 120.13 53.7396 120.047 53.625 119.922C53.5104 119.786 53.4531 119.578 53.4531 119.297C53.4531 118.995 53.5469 118.792 53.7344 118.688C53.9323 118.573 54.1615 118.49 54.4219 118.438C54.6927 118.375 54.9635 118.307 55.2344 118.234C55.5052 118.161 55.7135 118.01 55.8594 117.781V117.672C55.8594 117.495 55.8385 117.318 55.7969 117.141C55.7552 116.964 55.7344 116.771 55.7344 116.562C55.7344 115.885 55.7604 115.219 55.8125 114.562C55.875 113.906 55.9219 113.25 55.9531 112.594V111.266C55.974 110.995 56.0104 110.724 56.0625 110.453C56.125 110.172 56.1562 109.875 56.1562 109.562C56.1562 109.229 56.1198 108.922 56.0469 108.641C55.974 108.349 55.8333 108.062 55.625 107.781C55.6042 107.771 55.5781 107.75 55.5469 107.719C55.526 107.688 55.5052 107.656 55.4844 107.625C55.4531 107.583 55.4271 107.547 55.4062 107.516H54.1875C54.1667 107.516 54.1042 107.458 54 107.344C53.8958 107.219 53.8229 107.12 53.7812 107.047C53.7708 107.026 53.7656 107 53.7656 106.969C53.7552 106.938 53.75 106.891 53.75 106.828C53.75 106.714 53.7812 106.62 53.8438 106.547C53.9062 106.464 53.9896 106.396 54.0938 106.344C54.1979 106.281 54.3073 106.24 54.4219 106.219C54.5469 106.188 54.6667 106.167 54.7812 106.156H56.0469C56.151 106.062 56.2552 106.005 56.3594 105.984C56.4635 105.953 56.5781 105.938 56.7031 105.938C56.7969 105.938 56.8958 105.943 57 105.953C57.1042 105.964 57.2135 105.969 57.3281 105.969H57.4844C57.5052 105.969 57.5729 105.953 57.6875 105.922C57.8021 105.88 57.8802 105.859 57.9219 105.859C57.9427 105.859 57.9896 105.875 58.0625 105.906C58.1458 105.927 58.1979 105.948 58.2188 105.969H60.1875C60.2083 105.948 60.2604 105.927 60.3438 105.906C60.4271 105.875 60.4844 105.859 60.5156 105.859C60.5365 105.87 60.5625 105.88 60.5938 105.891C60.6146 105.901 60.6354 105.917 60.6562 105.938C60.6875 105.948 60.7135 105.958 60.7344 105.969C60.776 105.99 60.8333 106.026 60.9062 106.078C60.9896 106.13 61.0417 106.156 61.0625 106.156C61.1042 106.208 61.151 106.276 61.2031 106.359C61.2656 106.443 61.3229 106.526 61.375 106.609C61.4375 106.682 61.4896 106.75 61.5312 106.812C61.5729 106.875 61.5938 106.917 61.5938 106.938V107.234C61.5625 107.245 61.5156 107.26 61.4531 107.281C61.3906 107.302 61.3229 107.328 61.25 107.359C61.1875 107.391 61.125 107.417 61.0625 107.438C61 107.458 60.9531 107.474 60.9219 107.484C60.901 107.484 60.849 107.516 60.7656 107.578C60.6927 107.641 60.6458 107.672 60.625 107.672C60.4792 107.766 60.3333 107.854 60.1875 107.938C60.0521 108.021 59.9219 108.115 59.7969 108.219C59.6823 108.312 59.5885 108.427 59.5156 108.562C59.4427 108.688 59.4062 108.844 59.4062 109.031C59.4062 109.188 59.4271 109.339 59.4688 109.484C59.5208 109.63 59.5469 109.776 59.5469 109.922V110.078C59.5469 110.099 59.5417 110.141 59.5312 110.203C59.5208 110.266 59.5052 110.333 59.4844 110.406C59.474 110.469 59.4635 110.536 59.4531 110.609C59.4427 110.672 59.4375 110.714 59.4375 110.734V111.156V112.234C59.4167 112.443 59.3542 112.646 59.25 112.844C59.1562 113.031 59.1094 113.229 59.1094 113.438C59.1094 113.531 59.1198 113.63 59.1406 113.734C59.1719 113.839 59.1875 113.938 59.1875 114.031V114.219C59.1458 114.583 59.1042 114.958 59.0625 115.344C59.0208 115.729 59 116.12 59 116.516V116.703C59.0312 116.901 59.0573 117.104 59.0781 117.312C59.099 117.51 59.1406 117.693 59.2031 117.859C59.2656 118.026 59.3646 118.167 59.5 118.281C59.6354 118.385 59.8281 118.438 60.0781 118.438C60.224 118.438 60.3438 118.396 60.4375 118.312C60.5312 118.229 60.6458 118.188 60.7812 118.188H60.8438C60.8958 118.188 60.9219 118.198 60.9219 118.219C60.9531 118.24 61.0052 118.281 61.0781 118.344C61.1615 118.396 61.2448 118.458 61.3281 118.531C61.4115 118.594 61.4844 118.656 61.5469 118.719C61.6198 118.781 61.6719 118.828 61.7031 118.859C61.776 118.911 61.8646 118.995 61.9688 119.109C62.0833 119.224 62.1406 119.349 62.1406 119.484V119.516C62.0885 119.651 62 119.792 61.875 119.938C61.7604 120.083 61.6667 120.203 61.5938 120.297C61.5833 120.297 61.5625 120.312 61.5312 120.344C61.5104 120.354 61.4948 120.365 61.4844 120.375C61.474 120.375 61.4323 120.38 61.3594 120.391C61.2969 120.401 61.224 120.411 61.1406 120.422C61.0677 120.443 60.9896 120.458 60.9062 120.469C60.8333 120.479 60.776 120.484 60.7344 120.484H60.5938H60.375C60.3021 120.484 60.1667 120.479 59.9688 120.469C59.7812 120.458 59.5781 120.443 59.3594 120.422C59.1406 120.411 58.9323 120.401 58.7344 120.391C58.5469 120.38 58.4115 120.375 58.3281 120.375Z" fill="#FFB800"/>
<path d="M63.9457 79.3788C62.1974 63.9321 55.1782 57.5297 50.0512 52.8609C46.5066 49.6205 44.8023 47.935 44.8023 45C44.8023 42.1051 46.5006 40.4518 50.0352 37.2777C55.2222 32.623 62.3254 26.2467 63.9497 10.5911C64.0796 9.27582 63.933 7.94781 63.5195 6.69301C63.106 5.4382 62.4348 4.28456 61.5493 3.30674C60.6037 2.26232 59.4506 1.42847 58.1644 0.858936C56.8783 0.289402 55.4876 -0.00317918 54.082 4.93446e-05H9.91804C8.51047 -0.00436635 7.11761 0.287624 5.82935 0.857181C4.54108 1.42674 3.38602 2.26121 2.43869 3.30674C1.55585 4.28591 0.88717 5.44005 0.475784 6.69472C0.064399 7.94939 -0.080558 9.27672 0.050264 10.5911C1.66855 26.1965 8.74583 32.5266 13.9128 37.1471C17.4814 40.3393 19.1977 42.0047 19.1977 45C19.1977 48.0335 17.4774 49.733 13.8967 52.9855C8.79583 57.6261 1.79458 63.9803 0.0542656 79.3788C-0.0870415 80.6881 0.0483789 82.0126 0.451677 83.2658C0.854976 84.5189 1.51707 85.6725 2.39469 86.6511C3.344 87.7088 4.50465 88.5538 5.80095 89.1308C7.09726 89.7078 8.50011 90.004 9.91804 90H54.082C55.4999 90.004 56.9027 89.7078 58.199 89.1308C59.4954 88.5538 60.656 87.7088 61.6053 86.6511C62.4829 85.6725 63.145 84.5189 63.5483 83.2658C63.9516 82.0126 64.087 80.6881 63.9457 79.3788ZM49.4631 80.3571H14.6229C11.5023 80.3571 10.6222 76.741 12.8106 74.4991C18.1075 69.1071 28.7994 65.246 28.7994 59.0625V38.5714C28.7994 34.5837 21.1981 31.5402 16.4952 25.0715C15.7191 24.0047 15.7971 22.5 17.7694 22.5H46.3206C48.0029 22.5 48.3649 23.9927 47.6008 25.0614C42.966 31.5402 35.2006 34.5636 35.2006 38.5714V59.0625C35.2006 65.1957 46.3446 68.5044 51.2835 74.5051C53.2738 76.9239 52.5777 80.3571 49.4631 80.3571Z" fill="#FFB800"/>
</g>
<defs>
<clipPath id="clip0_1_141">
<rect width="64" height="120" fill="white"/>
</clipPath>
</defs>
</svg>
