<svg width="64" height="90" viewBox="0 0 64 90" fill="none" xmlns="http://www.w3.org/2000/svg">
<path d="M63.9457 79.3788C62.1974 63.9321 55.1782 57.5297 50.0512 52.8609C46.5066 49.6205 44.8023 47.935 44.8023 45C44.8023 42.1051 46.5006 40.4518 50.0352 37.2777C55.2222 32.623 62.3254 26.2467 63.9497 10.5911C64.0796 9.27582 63.933 7.94781 63.5195 6.69301C63.106 5.4382 62.4348 4.28456 61.5493 3.30674C60.6037 2.26232 59.4506 1.42847 58.1644 0.858936C56.8783 0.289402 55.4876 -0.00317918 54.082 4.93446e-05H9.91804C8.51047 -0.00436635 7.11761 0.287624 5.82935 0.857181C4.54108 1.42674 3.38602 2.26121 2.43869 3.30674C1.55585 4.28591 0.88717 5.44005 0.475784 6.69472C0.064399 7.94939 -0.080558 9.27672 0.050264 10.5911C1.66855 26.1965 8.74583 32.5266 13.9128 37.1471C17.4814 40.3393 19.1977 42.0047 19.1977 45C19.1977 48.0335 17.4774 49.733 13.8967 52.9855C8.79583 57.6261 1.79458 63.9803 0.0542656 79.3788C-0.0870415 80.6881 0.0483789 82.0126 0.451677 83.2658C0.854976 84.5189 1.51707 85.6725 2.39469 86.6511C3.344 87.7088 4.50465 88.5538 5.80095 89.1308C7.09726 89.7078 8.50011 90.004 9.91804 90H54.082C55.4999 90.004 56.9027 89.7078 58.199 89.1308C59.4954 88.5538 60.656 87.7088 61.6053 86.6511C62.4829 85.6725 63.145 84.5189 63.5483 83.2658C63.9516 82.0126 64.087 80.6881 63.9457 79.3788ZM49.4631 80.3571H14.6229C11.5023 80.3571 10.6222 76.741 12.8106 74.4991C18.1075 69.1071 28.7994 65.246 28.7994 59.0625V38.5714C28.7994 34.5837 21.1981 31.5402 16.4952 25.0715C15.7191 24.0047 15.7971 22.5 17.7694 22.5H46.3206C48.0029 22.5 48.3649 23.9927 47.6008 25.0614C42.966 31.5402 35.2006 34.5636 35.2006 38.5714V59.0625C35.2006 65.1957 46.3446 68.5044 51.2835 74.5051C53.2738 76.9239 52.5777 80.3571 49.4631 80.3571Z" fill="white"/>
</svg>
